<svg xmlns="http://www.w3.org/2000/svg" version="1.1" xmlns:xlink="http://www.w3.org/1999/xlink" xmlns:svgjs="http://svgjs.dev/svgjs" width="2000" height="3489" viewBox="0 0 2000 3489"><g transform="matrix(1,0,0,1,-0.9902751779497976,-4.254878048780256)"><svg viewBox="0 0 188 328" data-background-color="#191552" preserveAspectRatio="xMidYMid meet" height="3489" width="2000" xmlns="http://www.w3.org/2000/svg" xmlns:xlink="http://www.w3.org/1999/xlink"><g id="tight-bounds" transform="matrix(1,0,0,1,0.0930858667272787,0.39999999999997726)"><svg viewBox="0 0 187.81382826654544 327.2" height="327.2" width="187.81382826654544"><g><svg viewBox="0 0 395.52 689.0554609021408" height="327.2" width="187.81382826654544"><g transform="matrix(1,0,0,1,0,362.68705602310706)"><svg viewBox="0 0 395.52 326.36840487903373" height="326.36840487903373" width="395.52"><g id="textblocktransform"><svg viewBox="0 0 395.52 326.36840487903373" height="326.36840487903373" width="395.52" id="textblock"><g><svg viewBox="0 0 395.52 326.36840487903373" height="326.36840487903373" width="395.52"><g transform="matrix(1,0,0,1,0,0)"><svg width="395.52" viewBox="12.35737 -3.607740113400671 31.407546599854125 25.91635011340067" height="326.36840487903373" data-palette-color="url(#d0b8d593-a4db-4d32-b52d-2c34b4a81476)"></svg></g></svg></g></svg></g></svg></g><g transform="matrix(1,0,0,1,103.08273396075013,0)"><svg viewBox="0 0 189.35453207849972 326.36840487903373" height="326.36840487903373" width="189.35453207849972"><g><svg xmlns="http://www.w3.org/2000/svg" xmlns:xlink="http://www.w3.org/1999/xlink" version="1.1" x="0" y="0" viewBox="21.679106830508616 1 56.85827385947762 98" enable-background="new 0 0 100 100" xml:space="preserve" height="326.36840487903373" width="189.35453207849972" class="icon-icon-0" data-fill-palette-color="accent" id="icon-0"></svg></g></svg></g><g></g></svg></g><defs></defs><mask id="5804d7c5-34d9-43cd-9538-94ea14c78eec"><g id="SvgjsG2166"><svg viewBox="0 0 187.81382826654544 327.2" height="327.2" width="187.81382826654544"><g><svg viewBox="0 0 395.52 689.0554609021408" height="327.2" width="187.81382826654544"><g transform="matrix(1,0,0,1,0,362.68705602310706)"><svg viewBox="0 0 395.52 326.36840487903373" height="326.36840487903373" width="395.52"><g id="SvgjsG2165"><svg viewBox="0 0 395.52 326.36840487903373" height="326.36840487903373" width="395.52" id="SvgjsSvg2164"><g><svg viewBox="0 0 395.52 326.36840487903373" height="326.36840487903373" width="395.52"><g transform="matrix(1,0,0,1,0,0)"><svg width="395.52" viewBox="12.35737 -3.607740113400671 31.407546599854125 25.91635011340067" height="326.36840487903373" data-palette-color="url(#d0b8d593-a4db-4d32-b52d-2c34b4a81476)"><path d="M12.357 19.225l1.277-2.25c0.361 0.379 0.882 0.775 1.563 1.188 0.688 0.415 1.536 0.732 2.546 0.952v0c1.036 0.225 1.923 0.24 2.661 0.045 0.733-0.203 1.354-0.613 1.864-1.233 0.502-0.614 0.935-1.448 1.3-2.501 0.365-1.053 0.708-2.319 1.029-3.798v0l2.733-12.597 2.981 0.647-2.591 11.942c-0.377 1.74-0.812 3.317-1.303 4.731-0.493 1.421-1.119 2.609-1.879 3.563-0.766 0.953-1.733 1.602-2.899 1.95-1.173 0.346-2.633 0.329-4.379-0.05v0c-1.101-0.239-2.042-0.569-2.824-0.992-0.788-0.423-1.481-0.956-2.079-1.597zM33.54 21.591l-2.954 0.718-5.674-23.351 9.736-2.366c1.03-0.25 2.025-0.266 2.984-0.046 0.959 0.22 1.843 0.609 2.651 1.168 0.808 0.558 1.495 1.239 2.06 2.041 0.565 0.803 0.96 1.664 1.183 2.583v0c0.309 1.27 0.318 2.55 0.028 3.842-0.29 1.292-0.863 2.419-1.72 3.382-0.857 0.963-1.975 1.612-3.355 1.947v0l-6.977 1.696zM28.503 0.864l2.359 9.707 6.812-1.655c0.81-0.197 1.462-0.589 1.958-1.175 0.497-0.58 0.827-1.285 0.989-2.114 0.154-0.833 0.125-1.687-0.088-2.561v0c-0.224-0.92-0.623-1.701-1.197-2.344-0.567-0.638-1.221-1.086-1.963-1.344-0.737-0.267-1.488-0.307-2.252-0.122v0z" opacity="1" transform="matrix(1,0,0,1,0,0)" fill="white" class="wordmark-text-0" id="SvgjsPath2163"></path></svg></g></svg></g></svg></g></svg></g><g transform="matrix(1,0,0,1,103.08273396075013,0)"><svg viewBox="0 0 189.35453207849972 326.36840487903373" height="326.36840487903373" width="189.35453207849972"><g><svg xmlns="http://www.w3.org/2000/svg" xmlns:xlink="http://www.w3.org/1999/xlink" version="1.1" x="0" y="0" viewBox="21.679106830508616 1 56.85827385947762 98" enable-background="new 0 0 100 100" xml:space="preserve" height="326.36840487903373" width="189.35453207849972" class="icon-icon-0" data-fill-palette-color="accent" id="SvgjsSvg2162"><g fill="black"><path fill-rule="evenodd" clip-rule="evenodd" d="M30.545 28.822C29.38 36.039 30.875 43.672 37.045 47.863 30.758 19.81 45.756 8.664 59.646 1 43.466 24.046 76.542 24.644 78.423 51.13 80.028 73.71 64.507 91.317 46.639 99 46.845 76.175 24.089 73.067 21.801 54.397 20.905 47.094 25.062 33.766 30.545 28.822" fill="black"></path></g></svg></g></svg></g><g></g></svg></g><defs><mask></mask></defs></svg><rect width="187.81382826654544" height="327.2" fill="black" stroke="none" visibility="hidden"></rect></g></mask><linearGradient x1="0" x2="1" y1="0.578" y2="0.595" id="d0b8d593-a4db-4d32-b52d-2c34b4a81476"><stop stop-color="#6ee2f5" offset="0"></stop><stop stop-color="#6454f0" offset="1"></stop></linearGradient><rect width="187.81382826654544" height="327.2" fill="url(#d0b8d593-a4db-4d32-b52d-2c34b4a81476)" mask="url(#5804d7c5-34d9-43cd-9538-94ea14c78eec)" data-fill-palette-color="primary"></rect><mask id="a59fd09c-2113-4c4f-ae8d-6be6daeaa998"><g id="SvgjsG2175"><svg viewBox="0 0 187.81382826654544 327.2" height="327.2" width="187.81382826654544"><g><svg viewBox="0 0 395.52 689.0554609021408" height="327.2" width="187.81382826654544"><g transform="matrix(1,0,0,1,0,362.68705602310706)"><svg viewBox="0 0 395.52 326.36840487903373" height="326.36840487903373" width="395.52"><g id="SvgjsG2174"><svg viewBox="0 0 395.52 326.36840487903373" height="326.36840487903373" width="395.52" id="SvgjsSvg2173"><g><svg viewBox="0 0 395.52 326.36840487903373" height="326.36840487903373" width="395.52"><g transform="matrix(1,0,0,1,0,0)"><svg width="395.52" viewBox="12.35737 -3.607740113400671 31.407546599854125 25.91635011340067" height="326.36840487903373" data-palette-color="url(#d0b8d593-a4db-4d32-b52d-2c34b4a81476)"></svg></g></svg></g></svg></g></svg></g><g transform="matrix(1,0,0,1,103.08273396075013,0)"><svg viewBox="0 0 189.35453207849972 326.36840487903373" height="326.36840487903373" width="189.35453207849972"><g><svg xmlns="http://www.w3.org/2000/svg" xmlns:xlink="http://www.w3.org/1999/xlink" version="1.1" x="0" y="0" viewBox="21.679106830508616 1 56.85827385947762 98" enable-background="new 0 0 100 100" xml:space="preserve" height="326.36840487903373" width="189.35453207849972" class="icon-icon-0" data-fill-palette-color="accent" id="SvgjsSvg2172"><g fill="white"><path fill-rule="evenodd" clip-rule="evenodd" d="M30.545 28.822C29.38 36.039 30.875 43.672 37.045 47.863 30.758 19.81 45.756 8.664 59.646 1 43.466 24.046 76.542 24.644 78.423 51.13 80.028 73.71 64.507 91.317 46.639 99 46.845 76.175 24.089 73.067 21.801 54.397 20.905 47.094 25.062 33.766 30.545 28.822" fill="white"></path></g></svg></g></svg></g><g></g></svg></g><defs><mask></mask></defs><mask><g id="SvgjsG2171"><svg viewBox="0 0 187.81382826654544 327.2" height="327.2" width="187.81382826654544"><g><svg viewBox="0 0 395.52 689.0554609021408" height="327.2" width="187.81382826654544"><g transform="matrix(1,0,0,1,0,362.68705602310706)"><svg viewBox="0 0 395.52 326.36840487903373" height="326.36840487903373" width="395.52"><g id="SvgjsG2170"><svg viewBox="0 0 395.52 326.36840487903373" height="326.36840487903373" width="395.52" id="SvgjsSvg2169"><g><svg viewBox="0 0 395.52 326.36840487903373" height="326.36840487903373" width="395.52"><g transform="matrix(1,0,0,1,0,0)"><svg width="395.52" viewBox="12.35737 -3.607740113400671 31.407546599854125 25.91635011340067" height="326.36840487903373" data-palette-color="url(#d0b8d593-a4db-4d32-b52d-2c34b4a81476)"><path d="M12.357 19.225l1.277-2.25c0.361 0.379 0.882 0.775 1.563 1.188 0.688 0.415 1.536 0.732 2.546 0.952v0c1.036 0.225 1.923 0.24 2.661 0.045 0.733-0.203 1.354-0.613 1.864-1.233 0.502-0.614 0.935-1.448 1.3-2.501 0.365-1.053 0.708-2.319 1.029-3.798v0l2.733-12.597 2.981 0.647-2.591 11.942c-0.377 1.74-0.812 3.317-1.303 4.731-0.493 1.421-1.119 2.609-1.879 3.563-0.766 0.953-1.733 1.602-2.899 1.95-1.173 0.346-2.633 0.329-4.379-0.05v0c-1.101-0.239-2.042-0.569-2.824-0.992-0.788-0.423-1.481-0.956-2.079-1.597zM33.54 21.591l-2.954 0.718-5.674-23.351 9.736-2.366c1.03-0.25 2.025-0.266 2.984-0.046 0.959 0.22 1.843 0.609 2.651 1.168 0.808 0.558 1.495 1.239 2.06 2.041 0.565 0.803 0.96 1.664 1.183 2.583v0c0.309 1.27 0.318 2.55 0.028 3.842-0.29 1.292-0.863 2.419-1.72 3.382-0.857 0.963-1.975 1.612-3.355 1.947v0l-6.977 1.696zM28.503 0.864l2.359 9.707 6.812-1.655c0.81-0.197 1.462-0.589 1.958-1.175 0.497-0.58 0.827-1.285 0.989-2.114 0.154-0.833 0.125-1.687-0.088-2.561v0c-0.224-0.92-0.623-1.701-1.197-2.344-0.567-0.638-1.221-1.086-1.963-1.344-0.737-0.267-1.488-0.307-2.252-0.122v0z" opacity="1" transform="matrix(1,0,0,1,0,0)" fill="black" class="wordmark-text-0" id="SvgjsPath2168"></path></svg></g></svg></g></svg></g></svg></g><g transform="matrix(1,0,0,1,103.08273396075013,0)"><svg viewBox="0 0 189.35453207849972 326.36840487903373" height="326.36840487903373" width="189.35453207849972"><g><svg xmlns="http://www.w3.org/2000/svg" xmlns:xlink="http://www.w3.org/1999/xlink" version="1.1" x="0" y="0" viewBox="21.679106830508616 1 56.85827385947762 98" enable-background="new 0 0 100 100" xml:space="preserve" height="326.36840487903373" width="189.35453207849972" class="icon-icon-0" data-fill-palette-color="accent" id="SvgjsSvg2167"><g fill="black"><path fill-rule="evenodd" clip-rule="evenodd" d="M30.545 28.822C29.38 36.039 30.875 43.672 37.045 47.863 30.758 19.81 45.756 8.664 59.646 1 43.466 24.046 76.542 24.644 78.423 51.13 80.028 73.71 64.507 91.317 46.639 99 46.845 76.175 24.089 73.067 21.801 54.397 20.905 47.094 25.062 33.766 30.545 28.822" fill="black"></path></g></svg></g></svg></g><g></g></svg></g><defs><mask></mask></defs></svg><rect width="187.81382826654544" height="327.2" fill="black" stroke="none" visibility="hidden"></rect></g></mask></svg><rect width="187.81382826654544" height="327.2" fill="black" stroke="none" visibility="hidden"></rect></g></mask><linearGradient x1="0" x2="1" y1="0.578" y2="0.595" id="22801290-75ae-4ec5-bf1c-50dd2fba92b2"><stop stop-color="#6ee2f5" offset="0"></stop><stop stop-color="#6454f0" offset="1"></stop></linearGradient><rect width="187.81382826654544" height="327.2" fill="url(#22801290-75ae-4ec5-bf1c-50dd2fba92b2)" mask="url(#a59fd09c-2113-4c4f-ae8d-6be6daeaa998)" data-fill-palette-color="accent"></rect></svg><rect width="187.81382826654544" height="327.2" fill="none" stroke="none" visibility="hidden"></rect></g></svg></g></svg>