<svg xmlns="http://www.w3.org/2000/svg" version="1.1" xmlns:xlink="http://www.w3.org/1999/xlink" xmlns:svgjs="http://svgjs.dev/svgjs" width="2000" height="1252" viewBox="0 0 2000 1252"><g transform="matrix(1,0,0,1,-1.2121212121212466,-2.01935483870966)"><svg viewBox="0 0 396 248" data-background-color="#ffffff" preserveAspectRatio="xMidYMid meet" height="1252" width="2000" xmlns="http://www.w3.org/2000/svg" xmlns:xlink="http://www.w3.org/1999/xlink"><g id="tight-bounds" transform="matrix(1,0,0,1,0.2400000000000091,0.4000000000000057)"><svg viewBox="0 0 395.52 247.2" height="247.2" width="395.52"><g><svg></svg></g><g><svg viewBox="0 0 395.52 247.2" height="247.2" width="395.52"><g><path d="M55.039 247.2l43.002-74.481h4.784l-40.479 70.111h270.828l-40.479-70.111h4.784l43.002 74.481zM197.76 0l43.002 74.481-4.784 0-38.218-66.195-38.218 66.195-4.784 0z" fill="#6ee2f5" fill-rule="nonzero" stroke="none" stroke-width="1" stroke-linecap="butt" stroke-linejoin="miter" stroke-miterlimit="10" stroke-dasharray="" stroke-dashoffset="0" font-family="none" font-weight="none" font-size="none" text-anchor="none" style="mix-blend-mode: normal" data-fill-palette-color="tertiary"></path></g><g transform="matrix(1,0,0,1,2.842170943040401e-14,88.51522012578616)"><svg viewBox="0 0 395.5199999999999 70.16955974842766" height="70.16955974842766" width="395.5199999999999"><g><svg viewBox="0 0 395.52000000000004 70.16955974842767" height="70.16955974842766" width="395.5199999999999"><g><svg viewBox="0 0 395.52000000000004 70.16955974842767" height="70.16955974842767" width="395.52000000000004"><g id="textblocktransform"><svg viewBox="0 0 395.52000000000004 70.16955974842767" height="70.16955974842767" width="395.52000000000004" id="textblock"><g><svg viewBox="0 0 395.52000000000004 70.16955974842767" height="70.16955974842767" width="395.52000000000004"><g transform="matrix(1,0,0,1,0,0)"><svg width="395.52000000000004" viewBox="1.5 -33.7 190.78 33.85" height="70.16955974842767" data-palette-color="#6ee2f5"><path d="M16.6-33.65L16.6-10.2Q16.6-5.35 14.03-2.65 11.45 0.05 6.85 0.05L6.85 0.05Q3.4 0.05 1.5-0.95L1.5-0.95 1.5-7.75Q3.35-6.6 5.35-6.6L5.35-6.6Q8.9-6.6 8.9-10.4L8.9-10.4 8.9-33.65 16.6-33.65ZM34.45-10.9L34.45-10.9 30.55-10.9 30.55 0 22.85 0 22.85-33.7 34.45-33.7Q40.05-33.7 43.52-30.55 47-27.4 47-22.55L47-22.55Q47-17 43.37-13.95 39.75-10.9 34.45-10.9ZM33.55-27.55L33.55-27.55 30.55-27.55 30.55-17 33.1-17Q39.2-17 39.2-22.55L39.2-22.55Q39.2-27.55 33.55-27.55ZM78.04 0L78.04 0 63.49 0 63.49-33.7 76.59-33.7Q82.14-33.7 85.04-31.08 87.94-28.45 87.94-24.4L87.94-24.4Q87.94-21.75 86.54-19.75 85.14-17.75 82.89-17.05L82.89-17.05Q88.74-15.3 88.74-9.15L88.74-9.15Q88.74-5.15 85.87-2.58 82.99 0 78.04 0ZM75.29-27.55L75.29-27.55 71.19-27.55 71.19-20 74.04-20Q77.04-20 78.57-21.1 80.09-22.2 80.09-24L80.09-24Q80.09-27.55 75.29-27.55ZM75.29-13.95L75.29-13.95 71.19-13.95 71.19-6.15 75.24-6.15Q80.94-6.15 80.94-10.05 80.94-13.95 75.29-13.95ZM102.79-5L102.79-5Q104.34-5 105.19-5.95 106.04-6.9 106.04-8.55L106.04-8.55 106.04-10.4 103.69-10.4Q101.84-10.4 100.84-9.6 99.84-8.8 99.84-7.55L99.84-7.55Q99.84-5 102.79-5ZM106.39 0L106.39-3.1Q104.79 0.15 100.09 0.15L100.09 0.15Q96.39 0.15 94.32-1.95 92.24-4.05 92.24-7.2L92.24-7.2Q92.24-10.85 94.92-12.88 97.59-14.9 102.84-14.9L102.84-14.9 106.04-14.9 106.04-16.65Q106.04-19.85 101.79-19.85L101.79-19.85Q97.69-19.85 94.19-17.55L94.19-17.55 94.19-24.1Q97.19-25.8 102.84-25.8L102.84-25.8Q108.24-25.8 110.89-23.48 113.54-21.15 113.54-16.25L113.54-16.25 113.54 0 106.39 0ZM138.24-5.65L138.24 0 118.29 0 118.29-5.25 129.39-19.75 118.74-19.75 118.74-25.35 137.64-25.35 137.64-20.3 126.54-5.65 138.24-5.65ZM152.54-5L152.54-5Q154.09-5 154.94-5.95 155.79-6.9 155.79-8.55L155.79-8.55 155.79-10.4 153.44-10.4Q151.59-10.4 150.59-9.6 149.59-8.8 149.59-7.55L149.59-7.55Q149.59-5 152.54-5ZM156.14 0L156.14-3.1Q154.54 0.15 149.84 0.15L149.84 0.15Q146.14 0.15 144.06-1.95 141.99-4.05 141.99-7.2L141.99-7.2Q141.99-10.85 144.66-12.88 147.34-14.9 152.59-14.9L152.59-14.9 155.79-14.9 155.79-16.65Q155.79-19.85 151.54-19.85L151.54-19.85Q147.44-19.85 143.94-17.55L143.94-17.55 143.94-24.1Q146.94-25.8 152.59-25.8L152.59-25.8Q157.99-25.8 160.64-23.48 163.29-21.15 163.29-16.25L163.29-16.25 163.29 0 156.14 0ZM192.28-16.45L192.28 0 184.98 0 184.98-15.1Q184.98-17.35 183.93-18.53 182.88-19.7 180.98-19.7L180.98-19.7Q178.98-19.7 177.66-18.13 176.33-16.55 176.33-13.4L176.33-13.4 176.33 0 169.03 0 169.03-25.35 176.33-25.35 176.33-21.05Q177.28-23.15 179.26-24.38 181.23-25.6 183.98-25.6L183.98-25.6Q187.88-25.6 190.08-23.28 192.28-20.95 192.28-16.45L192.28-16.45Z" opacity="1" transform="matrix(1,0,0,1,0,0)" fill="#6ee2f5" class="wordmark-text-0" data-fill-palette-color="primary" id="text-0"></path></svg></g></svg></g></svg></g></svg></g><g></g></svg></g></svg></g></svg></g><defs></defs></svg><rect width="395.52" height="247.2" fill="none" stroke="none" visibility="hidden"></rect></g></svg></g></svg>